<svg xmlns="http://www.w3.org/2000/svg" viewBox="0 0 800 600"><defs><linearGradient id="bg" x1="0" y1="0" x2="1" y2="1"><stop stop-color="#f8eadc"/><stop offset="1" stop-color="#f0d2b8"/></linearGradient><linearGradient id="filling" x1="0" y1="0" x2="0" y2="1"><stop stop-color="#fff0c8"/><stop offset="1" stop-color="#e7b365"/></linearGradient></defs><rect width="800" height="600" rx="36" fill="url(#bg)"/><ellipse cx="400" cy="495" rx="230" ry="32" fill="#6f351e" opacity=".15"/><path d="M190 180h420l-35 300c-5 40-40 70-80 70H305c-40 0-75-30-80-70z" fill="#fff8f1" stroke="#d5aa84" stroke-width="8"/><path d="M225 415h350l-9 64c-4 27-27 47-54 47H288c-27 0-50-20-54-47z" fill="#33201a"/><path d="M225 260h350v158H225z" fill="url(#filling)"/><path d="M225 230h350v38H225z" fill="#d89042"/><g fill="#2c1915"><circle cx="300" cy="205" r="16"/><circle cx="338" cy="190" r="11"/><circle cx="385" cy="203" r="18"/><circle cx="432" cy="190" r="12"/><circle cx="478" cy="207" r="17"/><circle cx="515" cy="190" r="10"/></g><text x="400" y="105" text-anchor="middle" font-family="Georgia,serif" font-size="44" font-weight="700" fill="#5a2616">Cheesecake</text></svg>